<svg width="276" height="160" viewBox="0 0 276 160" fill="none" xmlns="http://www.w3.org/2000/svg">
<rect width="276" height="160" rx="3" fill="white"/>
<g clip-path="url(#clip0_3908_92969)">
<path d="M119.254 69.5924C118.515 69.6402 118.079 70.0761 118.087 70.8182C118.094 71.6241 118.602 71.9949 119.357 72.0488C120.161 71.9691 120.643 71.5129 120.603 70.7483C120.565 69.986 120.055 69.5407 119.254 69.5924Z" fill="#00296C"/>
<path d="M143.393 80.5884C144.311 75.8889 140.178 72.0655 135.702 73.3411C132.588 74.2299 130.843 77.2012 131.262 80.9063C131.791 85.578 136.321 88.089 140.565 86.0462C142.128 85.2932 143.006 84.0197 143.332 82.1338L141.147 82.1684L140.951 82.7295C140.104 84.4336 138.457 85.1017 136.4 84.5608C134.645 84.0994 133.572 82.5933 133.662 80.5881C136.908 80.5884 140.163 80.5884 143.393 80.5884ZM136.913 75.0946C139.195 74.9295 140.724 76.1573 141.102 78.5908C138.584 78.5908 136.14 78.5908 133.694 78.5908C133.731 76.7002 135.092 75.2261 136.913 75.0946Z" fill="#00296C"/>
<path d="M126.946 69.627C126.131 69.627 125.446 69.627 124.642 69.627C124.642 70.8975 124.642 72.1093 124.642 73.416C123.835 73.416 123.149 73.416 122.427 73.416C122.427 74.0928 122.427 74.668 122.427 75.3442C123.171 75.3442 123.857 75.3442 124.654 75.3442C124.654 75.8186 124.653 76.1983 124.654 76.576C124.661 79.0729 124.64 81.5707 124.689 84.0651C124.714 85.3699 125.207 86.0591 126.286 86.2132C127.342 86.3665 128.425 86.3343 129.514 86.3831C129.514 85.6291 129.514 85.0514 129.514 84.3928C129.073 84.3928 128.689 84.3658 128.312 84.3982C127.331 84.483 126.883 84.0957 126.934 83.069C126.99 81.9462 126.946 80.8192 126.946 79.6933C126.946 78.2675 126.946 76.8405 126.946 75.3184C127.895 75.3184 128.69 75.3184 129.528 75.3184C129.528 74.6691 129.528 74.1181 129.528 73.3961C128.663 73.3961 127.87 73.3961 126.946 73.3961C126.946 72.0907 126.946 70.8781 126.946 69.627Z" fill="#00296C"/>
<path d="M118.31 86.2593C119.042 86.2593 119.693 86.2593 120.396 86.2593C120.396 81.9706 120.396 77.7443 120.396 73.4609C119.683 73.4609 119.03 73.4609 118.31 73.4609C118.31 77.7948 118.31 82.0231 118.31 86.2593Z" fill="#00296C"/>
<path d="M85.6702 82.052C84.2209 80.7225 82.7903 79.3677 81.3347 78.0441C80.6243 77.398 80.508 76.8225 81.2923 76.121C82.2869 75.2307 83.2391 74.2899 84.1703 73.3331C85.4846 71.9834 86.7604 70.5994 87.8556 69.4376C86.9646 68.3895 86.0104 67.2678 84.9958 66.0737C81.5344 69.4317 78.1898 72.6366 74.9003 75.8974C74.1846 76.6074 74.2753 77.6302 75.0348 78.3635C77.7887 81.0211 80.5791 83.6413 83.4102 86.3281C84.2284 85.5501 85.0006 84.8415 85.7449 84.1044C86.6275 83.2276 86.598 82.9055 85.6702 82.052Z" fill="#00296C"/>
<path d="M93.0904 78.2785C91.5351 76.8212 89.97 75.3715 88.3823 73.894C87.5324 74.706 86.7855 75.449 86.0061 76.1562C85.2903 76.8061 85.3375 77.3576 86.0532 77.9948C87.5776 79.3519 89.0559 80.76 90.5616 82.1383C91.2404 82.7596 91.3023 83.3398 90.5952 84.0068C89.0601 85.4581 87.5467 86.9325 86.0409 88.4128C85.2468 89.1935 84.485 90.0085 83.7656 90.7499C84.7858 91.8174 85.7804 92.8576 86.7948 93.9203C86.994 93.8161 87.067 93.7962 87.1147 93.7504C90.311 90.6755 93.5137 87.6071 96.692 84.5131C97.6069 83.6208 97.5206 82.4869 96.5394 81.5449C95.3954 80.4491 94.2454 79.3609 93.0904 78.2785Z" fill="#00296C"/>
<path d="M115.731 82.3522C115.662 80.9658 114.888 80.0365 113.652 79.5621C112.641 79.1737 111.558 78.9797 110.517 78.6662C109.578 78.3843 108.595 78.1708 107.739 77.7195C106.722 77.1832 106.788 75.9584 107.838 75.4776C109.427 74.7475 112.267 74.7008 112.999 77.1818C113.696 77.1818 114.393 77.1818 115.11 77.1818C115.072 75.8199 114.6 74.7322 113.5 73.9757C111.653 72.7074 107.763 72.8164 105.958 74.1706C104.041 75.6121 104.168 78.3834 106.264 79.531C107.02 79.9449 107.897 80.1566 108.735 80.403C109.845 80.7296 110.988 80.9542 112.086 81.3157C112.818 81.5572 113.381 82.0371 113.308 82.9482C113.234 83.8806 112.604 84.326 111.818 84.4779C110.327 84.7669 110.033 84.718 108.482 84.4442C107.617 84.2908 107.002 83.7197 106.698 82.8271L106.559 82.2542L104.39 82.243C104.42 83.8415 104.96 85.0932 106.289 85.7594C108.722 86.9754 111.672 86.949 114.078 85.6563C115.343 84.9755 115.801 83.759 115.731 82.3522Z" fill="#00296C"/>
<path d="M201.564 75.2934C201.564 74.6247 201.564 74.0768 201.564 73.4081C200.692 73.4081 199.867 73.4081 198.927 73.4081C198.927 72.0795 198.927 70.8685 198.927 69.6348C198.121 69.6348 197.439 69.6348 196.622 69.6348C196.622 70.9103 196.622 72.1196 196.622 73.4213C195.835 73.4213 195.183 73.4213 194.502 73.4213C194.502 74.0976 194.502 74.6727 194.502 75.3447C195.213 75.3447 195.869 75.3447 196.647 75.3447C196.647 75.8505 196.643 76.2614 196.647 76.6717C196.675 79.2026 196.691 81.7327 196.739 84.2628C196.756 85.294 197.259 86.0641 198.305 86.214C199.363 86.3646 200.445 86.3345 201.546 86.3848C201.546 85.6291 201.546 85.0531 201.546 84.3914C200.99 84.3914 200.503 84.3855 200.017 84.3931C199.329 84.4069 198.95 84.083 198.947 83.3893C198.941 80.7571 198.944 78.1248 198.944 75.2928C199.903 75.2934 200.727 75.2934 201.564 75.2934Z" fill="#00296C"/>
<path d="M167.141 73.1224C163.363 72.8435 160.608 75.3205 160.306 79.268C159.984 83.4609 162.336 86.3333 166.342 86.6394C170.164 86.9323 172.996 84.4689 173.289 80.5975C173.617 76.2734 171.277 73.4268 167.141 73.1224ZM166.058 84.6281C163.771 84.2478 162.496 82.1089 162.746 79.0722C162.939 76.7551 164.592 75.1043 166.738 75.0897C169.253 75.0726 170.877 76.9679 170.873 79.9125C170.866 83.0986 168.832 85.0892 166.058 84.6281Z" fill="#00296C"/>
<path d="M177.164 69.5983C176.388 69.5573 175.875 69.9297 175.817 70.7336C175.756 71.5521 176.248 71.9358 177.038 72.0561C177.769 71.994 178.309 71.6049 178.327 70.8353C178.344 70.1367 177.919 69.6376 177.164 69.5983Z" fill="#00296C"/>
<path d="M155.447 73.8481C153.255 72.5945 150.228 72.9093 147.986 74.6811L147.99 73.487C147.239 73.487 146.56 73.487 145.869 73.487C145.869 79.4315 145.869 85.294 145.869 91.2272C146.591 91.2272 147.271 91.2272 148.066 91.2272C148.066 89.1384 148.066 87.116 148.066 84.8814C150.221 86.7684 152.451 87.0531 154.784 86.2213C157.127 85.3847 158.108 83.4475 158.45 81.1095C158.893 78.077 157.675 75.122 155.447 73.8481ZM156.128 80.0156C156.079 80.7096 155.955 81.4137 155.748 82.0758C155.231 83.7435 154.033 84.6258 152.333 84.6944C150.572 84.7646 149.188 83.9687 148.53 82.4263C147.807 80.7345 147.797 79.0041 148.535 77.3165C149.188 75.8197 150.371 75.0698 152.018 75.0841C154.555 75.088 156.331 77.1932 156.128 80.0156Z" fill="#00296C"/>
<path d="M192.514 76.7034C192.435 74.6212 191.045 73.4063 188.987 73.1645C186.947 72.9247 185.068 73.3361 183.629 75.1966L183.622 73.4807C182.898 73.4807 182.223 73.4807 181.585 73.4807C181.585 77.7966 181.585 82.0362 181.585 86.2762C182.343 86.2762 183.023 86.2762 183.802 86.2762C183.802 85.7814 183.8 85.3644 183.802 84.9473C183.816 82.7649 183.737 80.5772 183.867 78.4027C184.016 75.8678 186.157 74.6383 188.655 75.2073C189.535 75.4078 190.124 76.0588 190.253 76.9862C190.348 77.6798 190.376 78.3864 190.381 79.0882C190.396 81.472 190.387 83.8546 190.387 86.297C191.154 86.297 191.803 86.297 192.546 86.297C192.545 83.028 192.636 79.8616 192.514 76.7034Z" fill="#00296C"/>
<path d="M176.006 86.2829C176.735 86.2829 177.392 86.2829 178.122 86.2829C178.122 81.9425 178.122 77.7142 178.122 73.4814C177.379 73.4814 176.701 73.4814 176.006 73.4814C176.006 77.7861 176.006 82.0159 176.006 86.2829Z" fill="#00296C"/>
</g>
<defs>
<clipPath id="clip0_3908_92969">
<rect width="127.24" height="27.9307" fill="white" transform="translate(74.3799 66.0347)"/>
</clipPath>
</defs>
</svg>
