<svg width="13" height="13" viewBox="0 0 13 13" fill="none" xmlns="http://www.w3.org/2000/svg">
<path d="M12.3883 9.21344C12.3656 9.19466 9.81034 7.36597 9.11701 7.48586C8.78378 7.54474 8.59306 7.77173 8.2112 8.22698C8.14976 8.30037 8.0017 8.47573 7.88736 8.60074C7.646 8.52211 7.41059 8.42629 7.18293 8.31402C6.00769 7.74187 5.05813 6.79231 4.48597 5.61706C4.3737 5.3894 4.27788 5.15399 4.19925 4.91264C4.32469 4.79786 4.50048 4.64981 4.57557 4.58666C5.02826 4.20693 5.25525 4.01621 5.31413 3.68256C5.43488 2.99179 3.60533 0.434346 3.58656 0.411307C3.50324 0.293144 3.39473 0.194954 3.26885 0.123826C3.14297 0.0526972 3.00287 0.0104043 2.85867 0C2.11712 0 0 2.74603 0 3.20896C0 3.23584 0.0388266 5.96821 3.40821 9.39562C6.83178 12.7612 9.56416 12.8 9.59104 12.8C10.054 12.8 12.8 10.6829 12.8 9.94133C12.7896 9.79707 12.7473 9.65693 12.6761 9.53104C12.6048 9.40515 12.5065 9.29667 12.3883 9.21344ZM9.5441 11.9441C9.1712 11.9134 6.87829 11.6109 4.01152 8.79445C1.18059 5.91232 0.88576 3.61301 0.85632 3.25675C1.41558 2.37894 2.091 1.58081 2.86421 0.884053C2.88128 0.90112 2.90389 0.92672 2.93291 0.96C3.5259 1.76948 4.03673 2.63606 4.45781 3.54688C4.32088 3.68464 4.17614 3.81442 4.02432 3.93557C3.78888 4.11496 3.57268 4.31829 3.3792 4.54229L3.27552 4.68736L3.30624 4.86272C3.39653 5.25386 3.53483 5.63233 3.71797 5.98954C4.37414 7.33697 5.46294 8.42562 6.81045 9.0816C7.16759 9.26501 7.54608 9.40345 7.93728 9.49376L8.11264 9.52448L8.2577 9.4208C8.48255 9.22645 8.68673 9.00941 8.86698 8.77312C9.00053 8.61354 9.1793 8.40064 9.24672 8.34048C10.1601 8.76115 11.0289 9.27259 11.84 9.86709C11.8754 9.89696 11.9002 9.92 11.9168 9.93493C11.2202 10.7084 10.422 11.384 9.5441 11.9432V11.9441Z" fill="white"/>
</svg>
